<?xml version="1.0" encoding="utf-8"?>
<!-- Generator: Adobe Illustrator 16.0.0, SVG Export Plug-In . SVG Version: 6.00 Build 0)  -->
<!DOCTYPE svg PUBLIC "-//W3C//DTD SVG 1.1//EN" "http://www.w3.org/Graphics/SVG/1.1/DTD/svg11.dtd">
<svg version="1.1" id="Layer_1" xmlns="http://www.w3.org/2000/svg" xmlns:xlink="http://www.w3.org/1999/xlink" x="0px" y="0px"
	 width="10px" height="10px" viewBox="0 0 10 10" enable-background="new 0 0 10 10" xml:space="preserve">
<g>
	
		<linearGradient id="SVGID_1_" gradientUnits="userSpaceOnUse" x1="6492.8438" y1="-8515.1553" x2="6492.8438" y2="-8301.9521" gradientTransform="matrix(0.0469 0 0 -0.0469 -299.5146 -389.3614)">
		<stop  offset="0" style="stop-color:#77B852"/>
		<stop  offset="1" style="stop-color:#8DC270"/>
	</linearGradient>
	<circle fill="url(#SVGID_1_)" cx="5" cy="5" r="5"/>
	<path fill="#FFFFFF" d="M7.916,4.167H5.834V2.083c0-0.229-0.188-0.416-0.417-0.416H4.584c-0.229,0-0.417,0.188-0.417,0.416v2.084
		H2.084c-0.229,0-0.417,0.187-0.417,0.417v0.832c0,0.23,0.188,0.418,0.417,0.418h2.083v2.084c0,0.229,0.188,0.416,0.417,0.416h0.833
		c0.229,0,0.417-0.188,0.417-0.416V5.834h2.082c0.23,0,0.418-0.188,0.418-0.418V4.584C8.334,4.354,8.146,4.167,7.916,4.167z"/>
</g>
</svg>
