<?xml version="1.0" encoding="utf-8"?>
<!-- Generator: Adobe Illustrator 16.0.0, SVG Export Plug-In . SVG Version: 6.00 Build 0)  -->
<!DOCTYPE svg PUBLIC "-//W3C//DTD SVG 1.1//EN" "http://www.w3.org/Graphics/SVG/1.1/DTD/svg11.dtd">
<svg version="1.1" id="Layer_1" xmlns="http://www.w3.org/2000/svg" xmlns:xlink="http://www.w3.org/1999/xlink" x="0px" y="0px"
	 width="512px" height="512px" viewBox="0 0 512 512" enable-background="new 0 0 512 512" xml:space="preserve">
<g id="c194_arrow">
	<g id="XMLID_1_">
		<g>
			<path fill="#52A1D9" d="M512.97,257.02c0,141.311-114.56,256.011-255.97,255.99c-141.37,0-255.97-114.68-255.97-255.99
				C1.03,115.61,115.63,1.01,257,1.01C398.41,1.01,512.97,115.61,512.97,257.02z"/>
		</g>
	</g>
</g>
<polygon fill="#FFFFFF" points="365.587,213.245 190.513,389.175 121.385,319.674 296.424,143.745 "/>
<path fill="#FFFFFF" d="M418.067,160.545l-34.464,34.638l-69.162-69.507l29.551-29.69c11.959-11.98,31.317-11.98,43.236,0
	l30.839,30.998C427.312,136.274,427.312,151.248,418.067,160.545z"/>
<path fill="none" d="M171.787,407.994"/>
<path fill="none" d="M102.663,338.493"/>
<path fill="none" d="M121.389,319.674"/>
<path fill="none" d="M102.663,338.493"/>
<path fill="none" d="M190.515,389.175"/>
<path fill="none" d="M171.787,407.994"/>
<path fill="#FFFFFF" d="M171.786,407.996L94.714,426.77c-5.664,1.39-10.781-3.715-9.521-9.405l17.466-78.87L171.786,407.996z"/>
<path fill="none" d="M121.386,319.676"/>
<path fill="none" d="M102.663,338.493"/>
</svg>
