<svg id="Capa_1" enable-background="new 0 0 512 512" height="512" viewBox="0 0 512 512" width="512" xmlns="http://www.w3.org/2000/svg"><path d="m464.854 228.653c0-15.459-1.69-30.803-5.033-45.76l25.339-14.629-62.281-107.875-25.386 14.656c-22.761-20.984-49.791-36.608-79.211-45.787v-29.258h-62.282l-21.333 213.333 21.333 218.356h49.133l1.795-.45c33.819-8.478 64.904-25.321 90.565-48.978l25.386 14.656 62.281-107.874-25.339-14.63c3.343-14.957 5.033-30.301 5.033-45.76z" fill="#7982e9"/><path d="m193.719 0v29.259c-29.421 9.179-56.45 24.803-79.211 45.787l-25.387-14.657-62.281 107.875 25.339 14.629c-3.343 14.956-5.033 30.3-5.033 45.76s1.69 30.803 5.033 45.76l-25.339 14.63 62.281 107.874 25.385-14.656c25.661 23.657 56.746 40.501 90.565 48.978l1.796.45h49.133v-431.689z" fill="#8993ed"/><path d="m256 92.216-21.333 142.451 21.333 143 96.03-4.333v-47.774c25.759-25.546 40.407-60.486 40.407-96.907 0-75.231-61.205-136.437-136.437-136.437z" fill="#fdae02"/><path d="m119.563 228.653c0 36.421 14.648 71.36 40.407 96.906v47.774l96.03 4.333v-285.45c-75.231 0-136.437 61.206-136.437 136.437z" fill="#fdcb02"/><path d="m288.06 202.727-32.06 32.06-10.667 63.88 10.667 85.333h15v-121.787l38.273-38.273z" fill="#f7f0eb"/><path d="m223.94 202.727-21.213 21.213 38.273 38.273v121.787h15v-149.213z" fill="#fffbf5"/><path d="m256 390.333-10.667 57.667 10.667 64c30.923 0 56.082-25.158 56.082-56.082v-65.585z" fill="#babac0"/><path d="m199.918 390.333v65.585c0 30.924 25.158 56.082 56.082 56.082v-121.667z" fill="#d3d3d8"/><path d="m352.03 373.333h-96.03l-21.333 26.413 21.333 41.921h96.03z" fill="#d8d8d8"/><path d="m159.97 373.333h96.03v68.333h-96.03z" fill="#e7e7e7"/></svg>