<?xml version="1.0" encoding="utf-8"?>
<!-- Generator: Adobe Illustrator 16.0.0, SVG Export Plug-In . SVG Version: 6.00 Build 0)  -->
<!DOCTYPE svg PUBLIC "-//W3C//DTD SVG 1.1//EN" "http://www.w3.org/Graphics/SVG/1.1/DTD/svg11.dtd">
<svg version="1.1" id="Capa_1" xmlns="http://www.w3.org/2000/svg" xmlns:xlink="http://www.w3.org/1999/xlink" x="0px" y="0px"
	 width="512px" height="512px" viewBox="0 0 512 512" enable-background="new 0 0 512 512" xml:space="preserve">
<g id="c194_arrow">
	<g id="XMLID_1_">
		<g>
			<path fill="#E7BF55" d="M256,0.01C114.63,0.01,0.03,114.61,0.03,256.02c0,141.31,114.6,255.99,255.97,255.99
				c141.41,0.021,255.97-114.68,255.97-255.99C511.97,114.61,397.41,0.01,256,0.01z M211.3,103.58c0-20.86,16.88-37.69,37.67-37.72
				c20.799,0,37.64,16.86,37.64,37.72v40.75H211.3V103.58z M397.96,313.81l-119.18,119.23c-0.511,0.52-1.181,0.9-1.67,1.33
				c-0.38,0.439-0.63,0.899-1.03,1.26c-14.62,14.72-39.28,13.94-55.03-1.79L100.23,313c-15.74-15.7-16.48-40.32-1.78-55.04
				c14.7-14.68,39.32-13.92,55.01,1.78l57.84,57.81V205.13h75.311V318.65l58.069-58.101c15.48-15.44,39.99-16.11,54.67-1.33
				C414.031,273.91,413.441,298.35,397.96,313.81z"/>
			<path fill="#FFFFFF" d="M286.611,103.58v40.75H211.3v-40.75c0-20.86,16.88-37.69,37.67-37.72
				C269.77,65.86,286.611,82.72,286.611,103.58z"/>
			<path fill="#FFFFFF" d="M397.96,313.81l-119.18,119.23c-0.511,0.52-1.181,0.9-1.67,1.33c-0.38,0.439-0.63,0.899-1.03,1.26
				c-14.62,14.72-39.28,13.94-55.03-1.79L100.23,313c-15.74-15.7-16.48-40.32-1.78-55.04c14.7-14.68,39.32-13.92,55.01,1.78
				l57.84,57.81V205.13h75.311V318.65l58.069-58.101c15.48-15.44,39.99-16.11,54.67-1.33
				C414.031,273.91,413.441,298.35,397.96,313.81z"/>
		</g>
	</g>
</g>
<path fill="none" d="M286.611,144.33"/>
<path fill="none" d="M211.3,144.33"/>
<path fill="none" d="M286.611,205.13"/>
</svg>
