<svg height="512" viewBox="0 0 64 64" width="512" xmlns="http://www.w3.org/2000/svg"><path d="m61 19h-3.17l2.24 2.24-2.83 2.83-2.24-2.24v3.17h-4v-3.17l-2.24 2.24-2.83-2.83 2.24-2.24h-3.17v-4h3.17l-2.24-2.24 2.83-2.83 2.24 2.24v-3.17h4v3.17l2.24-2.24 2.83 2.83-2.24 2.24h3.17z" fill="#91dc5a"/><circle cx="53" cy="17" fill="#df2a47" r="3"/><circle cx="53" cy="17" fill="#ff3051" r="1"/><path d="m33.37 25a13.361 13.361 0 0 1 -.79 1.92l3.98 3.98-5.66 5.66-3.98-3.98a13.361 13.361 0 0 1 -1.92.79v5.63h-8v-5.63a13.361 13.361 0 0 1 -1.92-.79l-3.98 3.98-5.66-5.66 3.98-3.98a13.361 13.361 0 0 1 -.79-1.92h-5.63v-8h5.63a13.361 13.361 0 0 1 .79-1.92l-3.98-3.98 5.66-5.66 3.98 3.98a13.361 13.361 0 0 1 1.92-.79v-5.63h8v5.63a13.361 13.361 0 0 1 1.92.79l3.98-3.98 5.66 5.66-3.98 3.98a13.361 13.361 0 0 1 .79 1.92h5.63v8z" fill="#ffa733"/><circle cx="21" cy="21" fill="#df2a47" r="6"/><circle cx="21" cy="21" fill="#ff3051" r="4"/><path d="m21.65 54a3.228 3.228 0 0 1 -.24.58l2.37 2.37-2.83 2.83-2.37-2.37a3.228 3.228 0 0 1 -.58.24v3.35h-4v-3.35a3.228 3.228 0 0 1 -.58-.24l-2.37 2.37-2.83-2.83 2.37-2.37a3.228 3.228 0 0 1 -.24-.58h-3.35v-4h3.35a3.228 3.228 0 0 1 .24-.58l-2.37-2.37 2.83-2.83 2.37 2.37a3.228 3.228 0 0 1 .58-.24v-3.35h4v3.35a3.228 3.228 0 0 1 .58.24l2.37-2.37 2.83 2.83-2.37 2.37a3.228 3.228 0 0 1 .24.58h3.35v4z" fill="#57a4ff"/><path d="m56.54 50a9.244 9.244 0 0 1 -.68 1.62l3.16 3.16-4.24 4.24-3.16-3.16a9.244 9.244 0 0 1 -1.62.68v4.46h-6v-4.46a9.244 9.244 0 0 1 -1.62-.68l-3.16 3.16-4.24-4.24 3.16-3.16a9.244 9.244 0 0 1 -.68-1.62h-4.46v-6h4.46a9.244 9.244 0 0 1 .68-1.62l-3.16-3.16 4.24-4.24 3.16 3.16a9.244 9.244 0 0 1 1.62-.68v-4.46h6v4.46a9.244 9.244 0 0 1 1.62.68l3.16-3.16 4.24 4.24-3.16 3.16a9.244 9.244 0 0 1 .68 1.62h4.46v6z" fill="#ffcd00"/><circle cx="47" cy="47" fill="#df2a47" r="4"/><circle cx="47" cy="47" fill="#ff3051" r="2"/><circle cx="16" cy="52" fill="#df2a47" r="3"/><circle cx="16" cy="52" fill="#ff3051" r="1"/><path d="m10.101 10.101h2v2h-2z" fill="#ee8700" transform="matrix(.707 -.707 .707 .707 -4.598 11.101)"/><path d="m6 20h2v2h-2z" fill="#ee8700"/><path d="m10.101 29.9h2v2h-2z" fill="#ee8700" transform="matrix(.707 -.707 .707 .707 -18.598 16.9)"/><path d="m20 34h2v2h-2z" fill="#ee8700"/><path d="m29.9 29.9h2v2h-2z" fill="#ee8700" transform="matrix(.707 -.707 .707 .707 -12.799 30.899)"/><path d="m34 20h2v2h-2z" fill="#ee8700"/><path d="m29.9 10.101h2v2h-2z" fill="#ee8700" transform="matrix(.707 -.707 .707 .707 1.201 25.1)"/><g fill="#cca400"><path d="m46 35h2v2h-2z"/><path d="m38.222 38.222h2v2h-2z" transform="matrix(.707 -.707 .707 .707 -16.246 39.222)"/><path d="m35 46h2v2h-2z"/><path d="m38.222 53.778h2v2h-2z" transform="matrix(.707 -.707 .707 .707 -27.246 43.778)"/><path d="m46 57h2v2h-2z"/><path d="m53.778 53.778h2v2h-2z" transform="matrix(.707 -.707 .707 .707 -22.69 54.778)"/><path d="m57 46h2v2h-2z"/><path d="m53.778 38.222h2v2h-2z" transform="matrix(.707 -.707 .707 .707 -11.69 50.222)"/></g><path d="m20 6h2v2h-2z" fill="#ee8700"/></svg>